<svg width="273" height="273" viewBox="0 0 273 273" fill="none" xmlns="http://www.w3.org/2000/svg">
<path d="M17.0625 34.125C17.0625 24.6873 24.6873 17.0625 34.125 17.0625H187.688C197.125 17.0625 204.75 24.6873 204.75 34.125V51.1875H232.05C254.658 51.1875 273 69.5297 273 92.1375V146.578C273 162.787 263.456 177.45 248.686 184.008L204.75 203.524V221.812C204.75 240.635 189.447 255.938 170.625 255.938H51.1875C32.3654 255.938 17.0625 240.635 17.0625 221.812V34.125ZM204.75 166.146L234.823 152.763C237.275 151.643 238.875 149.244 238.875 146.524V92.1375C238.875 88.3518 235.836 85.3125 232.05 85.3125H204.75V166.146ZM85.3125 76.7812C85.3125 72.0891 81.4734 68.25 76.7812 68.25C72.0891 68.25 68.25 72.0891 68.25 76.7812V196.219C68.25 200.911 72.0891 204.75 76.7812 204.75C81.4734 204.75 85.3125 200.911 85.3125 196.219V76.7812ZM119.438 76.7812C119.438 72.0891 115.598 68.25 110.906 68.25C106.214 68.25 102.375 72.0891 102.375 76.7812V196.219C102.375 200.911 106.214 204.75 110.906 204.75C115.598 204.75 119.438 200.911 119.438 196.219V76.7812ZM153.562 76.7812C153.562 72.0891 149.723 68.25 145.031 68.25C140.339 68.25 136.5 72.0891 136.5 76.7812V196.219C136.5 200.911 140.339 204.75 145.031 204.75C149.723 204.75 153.562 200.911 153.562 196.219V76.7812Z" fill="black"/>
</svg>
