<svg width="292" height="292" viewBox="0 0 292 292" fill="none" xmlns="http://www.w3.org/2000/svg">
<path d="M121.667 79.0834C121.667 75.7375 118.929 73 115.583 73C112.238 73 109.5 75.7375 109.5 79.0834C109.5 82.4292 112.238 85.1667 115.583 85.1667C118.929 85.1667 121.667 82.4292 121.667 79.0834Z" fill="black"/>
<path d="M109.5 212.917C109.5 216.263 112.238 219 115.583 219C118.929 219 121.667 216.263 121.667 212.917C121.667 209.571 118.929 206.833 115.583 206.833C112.238 206.833 109.5 209.571 109.5 212.917Z" fill="black"/>
<path d="M206.833 103.417C206.833 100.071 204.096 97.3334 200.75 97.3334C197.404 97.3334 194.667 100.071 194.667 103.417C194.667 106.763 197.404 109.5 200.75 109.5C204.096 109.5 206.833 106.763 206.833 103.417Z" fill="black"/>
<path fill-rule="evenodd" clip-rule="evenodd" d="M146.01 6.41239e-07C126.837 -0.00179622 107.851 3.77276 90.1371 11.1086C72.4228 18.4444 56.3268 29.1976 42.7684 42.7542C29.21 56.3107 18.4548 72.4051 11.1166 90.1184C3.77832 107.832 0.000875017 126.817 6.19235e-07 145.99C-0.00176532 165.165 3.77356 184.152 11.1106 201.868C18.4477 219.583 29.2029 235.68 42.7616 249.239C56.3203 262.797 72.4167 273.552 90.1323 280.889C107.848 288.226 126.836 292.002 146.01 292C165.184 291.999 184.168 288.222 201.882 280.883C219.595 273.545 235.689 262.79 249.246 249.231C262.802 235.673 273.555 219.577 280.891 201.863C288.227 184.149 292.002 165.163 292 145.99C291.998 107.272 276.617 70.1396 249.239 42.7616C221.861 15.3835 184.729 0.00184609 146.01 6.41239e-07ZM200.75 73C217.555 73 231.167 86.6115 231.167 103.417C231.167 116.8 222.498 128.168 210.483 132.275C210.293 142.958 207.594 151.475 202.271 158.091C191.549 171.398 173.375 173.109 157.33 174.592L157.072 174.616C147.397 175.519 138.304 176.368 132.198 179.458C129.499 180.827 127.712 182.576 126.533 184.553C137.94 188.926 146 199.99 146 212.917C146 229.722 132.389 243.333 115.583 243.333C98.7781 243.333 85.1667 229.722 85.1667 212.917C85.1667 199.305 94.1016 187.785 106.458 183.869V108.093C94.1016 104.215 85.1667 92.6948 85.1667 79.0834C85.1667 62.2781 98.7781 48.6667 115.583 48.6667C132.389 48.6667 146 62.2781 146 79.0834C146 92.6948 137.065 104.215 124.708 108.093V162.843C133.795 158.471 144.897 157.406 155.619 156.418C169.269 155.163 182.158 153.946 188.013 146.646C190.598 143.453 191.967 138.738 192.195 132.617C179.572 128.929 170.333 117.256 170.333 103.417C170.333 86.6115 183.945 73 200.75 73Z" fill="black"/>
</svg>
