<svg width="300" height="268" viewBox="0 0 300 268" fill="none" xmlns="http://www.w3.org/2000/svg">
<path d="M136.349 79.8242C136.349 87.5333 142.59 93.8051 150.26 93.8051C157.931 93.8051 164.172 87.5333 164.172 79.8242C164.172 72.1151 157.931 65.8434 150.26 65.8434C142.59 65.8434 136.349 72.1151 136.349 79.8242Z" fill="black"/>
<path fill-rule="evenodd" clip-rule="evenodd" d="M110.265 79.8242C110.265 102.043 128.157 120.019 150.26 120.019C172.368 120.019 190.255 102.038 190.255 79.8242C190.255 57.6056 172.364 39.6293 150.26 39.6293C128.152 39.6293 110.265 57.61 110.265 79.8242ZM122.438 79.8242C122.438 64.3819 134.895 51.8625 150.26 51.8625C165.626 51.8625 178.083 64.3819 178.083 79.8242C178.083 95.2665 165.626 107.786 150.26 107.786C134.895 107.786 122.438 95.2665 122.438 79.8242Z" fill="black"/>
<path fill-rule="evenodd" clip-rule="evenodd" d="M233.333 33.5H287.5C294.427 33.5 300 39.1008 300 46.0625V75.375C300 94.0617 288.229 113.272 267.76 128.085C251.406 139.967 231.458 147.505 210.469 149.912C194.115 177.184 175 188.438 175 188.438V226.125H200C218.385 226.125 233.333 236.96 233.333 255.438V261.719C233.333 265.173 230.521 268 227.083 268H72.9167C69.4792 268 66.6667 265.173 66.6667 261.719V255.438C66.6667 236.96 81.6146 226.125 100 226.125H125V188.438C125 188.438 105.885 177.184 89.5312 149.912C68.5937 147.505 48.6458 139.967 32.2396 128.085C11.7187 113.272 0 94.0617 0 75.375V46.0625C0 39.1008 5.57292 33.5 12.5 33.5H66.6667V12.5625C66.6667 5.60078 72.2396 0 79.1667 0H220.833C227.76 0 233.333 5.60078 233.333 12.5625V33.5ZM33.3333 75.375C33.3333 81.4469 39.0104 91.7063 51.7188 100.919C58.2292 105.63 65.5729 109.398 73.4375 112.12C69.7917 99.0344 67.2917 84.0641 66.7708 67H33.3333V75.375ZM248.281 100.919C257.448 94.2711 266.667 83.8023 266.667 75.375V67H233.177C232.656 84.0641 230.156 99.0344 226.51 112.12C234.375 109.398 241.771 105.63 248.281 100.919ZM96.3542 79.8242C96.3542 49.903 120.488 25.6484 150.26 25.6484C180.033 25.6484 204.167 49.903 204.167 79.8242C204.167 109.745 180.033 134 150.26 134C120.488 134 96.3542 109.745 96.3542 79.8242Z" fill="black"/>
</svg>
