<svg width="289" height="289" viewBox="0 0 289 289" fill="none" xmlns="http://www.w3.org/2000/svg">
<path d="M209.466 172.364L197.88 150.993C193.719 155.575 191.208 161.624 191.208 168.283C191.208 182.53 202.758 194.057 217.035 194.057C231.311 194.057 242.862 182.53 242.862 168.283C242.862 154.035 231.311 142.508 217.035 142.508C215.672 142.508 214.309 142.616 213.017 142.831L224.604 164.202C226.863 168.355 225.285 173.581 221.124 175.836C216.963 178.092 211.726 176.552 209.466 172.364Z" fill="black"/>
<path d="M104.473 174.011H81.1571V174.046C73.9113 174.046 69.2122 166.421 72.4406 159.942L81.1213 142.58C80.5114 142.544 79.9016 142.508 79.2919 142.508C65.0153 142.508 53.465 154.035 53.465 168.283C53.465 182.53 65.0153 194.057 79.2919 194.057C91.5596 194.057 101.854 185.502 104.473 174.011Z" fill="black"/>
<path d="M111.432 120.564L93.2455 156.828H137.546L137.582 156.792L111.432 120.564Z" fill="black"/>
<path d="M164.628 111.006H125.708L147.087 140.647L164.628 111.006Z" fill="black"/>
<path fill-rule="evenodd" clip-rule="evenodd" d="M144.5 289C224.305 289 289 224.305 289 144.5C289 64.6949 224.305 0 144.5 0C64.6949 0 0 64.6949 0 144.5C0 224.305 64.6949 289 144.5 289ZM136.685 62.3211C136.685 57.56 140.523 53.7296 145.294 53.7296H157.92C162.153 53.7296 166.027 56.0207 168.036 59.7436L203.153 124.609C207.529 123.213 212.192 122.462 217.035 122.462C242.395 122.462 262.949 142.974 262.949 168.283C262.949 193.592 242.395 214.104 217.035 214.104C191.674 214.104 171.121 193.592 171.121 168.283C171.121 153.964 177.721 141.184 188.051 132.771L180.268 118.416L149.849 169.786C148.271 172.4 145.473 174.011 142.424 174.011H124.847C122.014 196.599 102.715 214.104 79.2919 214.104C53.9313 214.104 33.3775 193.592 33.3775 168.283C33.3775 142.974 53.9313 122.462 79.2919 122.462C83.13 122.462 86.8964 122.927 90.4835 123.822L100.025 104.813L92.0976 93.8232H76.4222C71.6514 93.8232 67.8132 89.9929 67.8132 85.2318C67.8132 80.4706 71.6514 76.6402 76.4222 76.6402H96.5097C99.2718 76.6402 101.89 77.9648 103.505 80.22L113.333 93.8232H166.924L154.512 70.9126H145.294C140.523 70.9126 136.685 67.0822 136.685 62.3211Z" fill="black"/>
</svg>
