<svg width="287" height="287" viewBox="0 0 287 287" fill="none" xmlns="http://www.w3.org/2000/svg">
<path fill-rule="evenodd" clip-rule="evenodd" d="M0 125.562C0 56.2228 64.2387 0 143.5 0C222.761 0 287 56.2228 287 125.562C287 164.857 266.316 199.891 234.028 222.93C228.591 226.797 225.508 233.131 226.461 239.69L231.73 276.798C232.515 282.179 228.367 287 222.93 287H179.375V255.609C179.375 253.143 177.357 251.125 174.891 251.125H165.922C163.455 251.125 161.438 253.143 161.438 255.609V287H125.562V255.609C125.562 253.143 123.545 251.125 121.078 251.125H112.109C109.643 251.125 107.625 253.143 107.625 255.609V287H64.0705C58.6332 287 54.4852 282.179 55.2699 276.798L60.5391 239.69C61.492 233.075 58.3529 226.797 52.9717 222.93C20.6842 199.891 0 164.857 0 125.562ZM122.922 124.739L135.049 128.266C136.321 128.644 137.633 127.907 138.011 126.632L165.148 32.9342C165.506 31.6589 164.79 30.3237 163.518 29.965L151.391 26.4379C150.118 26.0792 148.786 26.7966 148.428 28.072L121.292 121.77C120.934 123.045 121.65 124.38 122.922 124.739ZM121.033 96.6613L112.385 105.908C111.491 106.884 109.98 106.924 109.006 106.007L80.3581 79.0856C79.3442 78.149 79.3442 76.5349 80.3581 75.5983L109.006 48.6966C109.98 47.7799 111.491 47.8397 112.385 48.7962L121.033 58.0424C121.968 59.0189 121.888 60.5732 120.874 61.4699L102.863 77.3519L120.874 93.2339C121.888 94.1306 121.948 95.6849 121.033 96.6613ZM206.081 79.1055L177.434 106.027C176.46 106.924 174.949 106.884 174.054 105.908L165.406 96.6613C164.472 95.6849 164.551 94.1306 165.565 93.2339L183.577 77.3519L165.565 61.45C164.551 60.5533 164.492 58.999 165.406 58.0225L174.054 48.7763C174.969 47.8198 176.48 47.7799 177.434 48.6767L206.081 75.6182C207.095 76.5548 207.095 78.1689 206.081 79.1055ZM137.895 180.496C137.895 196.594 124.844 209.645 108.746 209.645C92.6479 209.645 79.5977 196.594 79.5977 180.496C79.5977 164.398 92.6479 151.348 108.746 151.348C124.844 151.348 137.895 164.398 137.895 180.496ZM177.693 209.645C193.792 209.645 206.842 196.594 206.842 180.496C206.842 164.398 193.792 151.348 177.693 151.348C161.595 151.348 148.545 164.398 148.545 180.496C148.545 196.594 161.595 209.645 177.693 209.645Z" fill="black"/>
<path fill-rule="evenodd" clip-rule="evenodd" d="M0 125.562C0 56.2228 64.2387 0 143.5 0C222.761 0 287 56.2228 287 125.562C287 164.857 266.316 199.891 234.028 222.93C228.591 226.797 225.508 233.131 226.461 239.69L231.73 276.798C232.515 282.179 228.367 287 222.93 287H179.375V255.609C179.375 253.143 177.357 251.125 174.891 251.125H165.922C163.455 251.125 161.438 253.143 161.438 255.609V287H125.562V255.609C125.562 253.143 123.545 251.125 121.078 251.125H112.109C109.643 251.125 107.625 253.143 107.625 255.609V287H64.0705C58.6332 287 54.4852 282.179 55.2699 276.798L60.5391 239.69C61.492 233.075 58.3529 226.797 52.9717 222.93C20.6842 199.891 0 164.857 0 125.562ZM122.922 124.739L135.049 128.266C136.321 128.644 137.633 127.907 138.011 126.632L165.148 32.9342C165.506 31.6589 164.79 30.3237 163.518 29.965L151.391 26.4379C150.118 26.0792 148.786 26.7966 148.428 28.072L121.292 121.77C120.934 123.045 121.65 124.38 122.922 124.739ZM121.033 96.6613L112.385 105.908C111.491 106.884 109.98 106.924 109.006 106.007L80.3581 79.0856C79.3442 78.149 79.3442 76.5349 80.3581 75.5983L109.006 48.6966C109.98 47.7799 111.491 47.8397 112.385 48.7962L121.033 58.0424C121.968 59.0189 121.888 60.5732 120.874 61.4699L102.863 77.3519L120.874 93.2339C121.888 94.1306 121.948 95.6849 121.033 96.6613ZM206.081 79.1055L177.434 106.027C176.46 106.924 174.949 106.884 174.054 105.908L165.406 96.6613C164.472 95.6849 164.551 94.1306 165.565 93.2339L183.577 77.3519L165.565 61.45C164.551 60.5533 164.492 58.999 165.406 58.0225L174.054 48.7763C174.969 47.8198 176.48 47.7799 177.434 48.6767L206.081 75.6182C207.095 76.5548 207.095 78.1689 206.081 79.1055ZM137.895 180.496C137.895 196.594 124.844 209.645 108.746 209.645C92.6479 209.645 79.5977 196.594 79.5977 180.496C79.5977 164.398 92.6479 151.348 108.746 151.348C124.844 151.348 137.895 164.398 137.895 180.496ZM177.693 209.645C193.792 209.645 206.842 196.594 206.842 180.496C206.842 164.398 193.792 151.348 177.693 151.348C161.595 151.348 148.545 164.398 148.545 180.496C148.545 196.594 161.595 209.645 177.693 209.645Z" fill="black"/>
<path fill-rule="evenodd" clip-rule="evenodd" d="M0 125.562C0 56.2228 64.2387 0 143.5 0C222.761 0 287 56.2228 287 125.562C287 164.857 266.316 199.891 234.028 222.93C228.591 226.797 225.508 233.131 226.461 239.69L231.73 276.798C232.515 282.179 228.367 287 222.93 287H179.375V255.609C179.375 253.143 177.357 251.125 174.891 251.125H165.922C163.455 251.125 161.438 253.143 161.438 255.609V287H125.562V255.609C125.562 253.143 123.545 251.125 121.078 251.125H112.109C109.643 251.125 107.625 253.143 107.625 255.609V287H64.0705C58.6332 287 54.4852 282.179 55.2699 276.798L60.5391 239.69C61.492 233.075 58.3529 226.797 52.9717 222.93C20.6842 199.891 0 164.857 0 125.562ZM122.922 124.739L135.049 128.266C136.321 128.644 137.633 127.907 138.011 126.632L165.148 32.9342C165.506 31.6589 164.79 30.3237 163.518 29.965L151.391 26.4379C150.118 26.0792 148.786 26.7966 148.428 28.072L121.292 121.77C120.934 123.045 121.65 124.38 122.922 124.739ZM121.033 96.6613L112.385 105.908C111.491 106.884 109.98 106.924 109.006 106.007L80.3581 79.0856C79.3442 78.149 79.3442 76.5349 80.3581 75.5983L109.006 48.6966C109.98 47.7799 111.491 47.8397 112.385 48.7962L121.033 58.0424C121.968 59.0189 121.888 60.5732 120.874 61.4699L102.863 77.3519L120.874 93.2339C121.888 94.1306 121.948 95.6849 121.033 96.6613ZM206.081 79.1055L177.434 106.027C176.46 106.924 174.949 106.884 174.054 105.908L165.406 96.6613C164.472 95.6849 164.551 94.1306 165.565 93.2339L183.577 77.3519L165.565 61.45C164.551 60.5533 164.492 58.999 165.406 58.0225L174.054 48.7763C174.969 47.8198 176.48 47.7799 177.434 48.6767L206.081 75.6182C207.095 76.5548 207.095 78.1689 206.081 79.1055ZM137.895 180.496C137.895 196.594 124.844 209.645 108.746 209.645C92.6479 209.645 79.5977 196.594 79.5977 180.496C79.5977 164.398 92.6479 151.348 108.746 151.348C124.844 151.348 137.895 164.398 137.895 180.496ZM177.693 209.645C193.792 209.645 206.842 196.594 206.842 180.496C206.842 164.398 193.792 151.348 177.693 151.348C161.595 151.348 148.545 164.398 148.545 180.496C148.545 196.594 161.595 209.645 177.693 209.645Z" fill="black"/>
</svg>
