<svg width="324" height="324" viewBox="0 0 324 324" fill="none" xmlns="http://www.w3.org/2000/svg">
<path fill-rule="evenodd" clip-rule="evenodd" d="M258.893 95.5182C261.096 96.7068 262.739 98.7206 263.46 101.118C263.812 102.304 263.927 103.549 263.798 104.78C263.669 106.011 263.297 107.204 262.706 108.291C262.114 109.378 261.313 110.337 260.35 111.114C259.386 111.891 258.279 112.47 257.091 112.817L250.805 114.68C251.388 123.639 249.223 132.563 244.6 140.259L249.75 144.905C250.722 145.722 251.519 146.727 252.093 147.86C252.667 148.992 253.007 150.229 253.091 151.496C253.175 152.763 253.003 154.034 252.584 155.233C252.165 156.432 251.508 157.534 250.653 158.473C249.798 159.411 248.762 160.168 247.608 160.697C246.453 161.225 245.204 161.515 243.934 161.549C242.665 161.583 241.402 161.361 240.221 160.894C239.039 160.428 237.964 159.728 237.06 158.837L231.754 154.06C226.403 157.815 220.285 160.336 213.842 161.44C211.626 161.867 209.435 162.411 207.278 163.072L209.411 167.893C209.91 169.029 210.18 170.253 210.206 171.493C210.231 172.734 210.013 173.968 209.562 175.124C209.511 175.254 209.458 175.382 209.402 175.51L124.204 90.3121C126.173 88.9491 128.588 88.3782 130.965 88.7215C133.443 89.0794 135.679 90.4017 137.187 92.4007L140.372 96.632C147.776 91.7373 155.593 87.4978 163.734 83.9618L162.022 79.1652C161.231 76.8144 161.396 74.2468 162.482 72.0165C163.567 69.7862 165.486 68.0721 167.824 67.244C170.162 66.4158 172.732 66.5402 174.979 67.5901C177.226 68.64 178.97 70.5313 179.835 72.856L181.547 77.6327C187.342 75.906 193.235 74.5224 199.193 73.4889C202.129 72.9974 205.107 72.8014 208.082 72.9037L209.578 67.1836C210.207 64.7555 211.775 62.6765 213.936 61.4041C216.098 60.1317 218.676 59.77 221.104 60.3987C223.532 61.0274 225.611 62.5949 226.884 64.7564C228.156 66.9179 228.518 69.4963 227.889 71.9245L226.38 77.6844C234.614 81.8264 241.36 88.4217 245.686 96.5604L251.705 94.7771C254.105 94.063 256.689 94.3295 258.893 95.5182ZM204.415 99.9921C208.383 99.9921 211.6 96.775 211.6 92.8066C211.6 88.8382 208.383 85.6211 204.415 85.6211C200.446 85.6211 197.229 88.8382 197.229 92.8066C197.229 96.775 200.446 99.9921 204.415 99.9921ZM236.423 123.508C236.423 130.363 230.866 135.919 224.011 135.919C217.157 135.919 211.6 130.363 211.6 123.508C211.6 116.654 217.157 111.097 224.011 111.097C230.866 111.097 236.423 116.654 236.423 123.508Z" fill="black"/>
<path fill-rule="evenodd" clip-rule="evenodd" d="M174.723 208.615L90.1329 124.025C89.6586 124.453 89.228 124.929 88.8482 125.447C88.1019 126.464 87.5675 127.621 87.2766 128.849C86.9857 130.076 86.9441 131.35 87.1545 132.594C87.3648 133.838 87.8228 135.027 88.5012 136.091C89.1796 137.154 90.0646 138.071 91.1039 138.787L95.5183 141.995C90.7473 149.42 86.6292 157.244 83.2103 165.381L78.0635 163.617C76.889 163.186 75.6406 162.994 74.3908 163.051C73.1411 163.107 71.9153 163.413 70.785 163.949C69.6547 164.485 68.6425 165.241 67.8077 166.173C66.9729 167.104 66.3321 168.193 65.9229 169.375C65.5137 170.558 65.3442 171.809 65.4243 173.058C65.5044 174.306 65.8326 175.526 66.3896 176.646C66.9466 177.767 67.7212 178.764 68.6683 179.582C69.6154 180.399 70.7159 181.02 71.9055 181.407L77.0803 183.19C75.5571 188.497 74.3214 193.883 73.3783 199.323C72.8568 202.662 72.7179 206.048 72.9643 209.418L66.8183 211.233C64.4265 211.946 62.416 213.581 61.2291 215.776C60.0422 217.971 59.776 220.549 60.4891 222.94C61.2022 225.332 62.8363 227.342 65.0318 228.529C67.2273 229.716 69.8043 229.983 72.1961 229.269L78.167 227.502C82.5006 235.622 89.2514 242.193 97.4848 246.306L95.9522 252.178C95.6427 253.376 95.5722 254.623 95.7448 255.848C95.9174 257.073 96.3297 258.252 96.9581 259.318C97.5865 260.384 98.4188 261.315 99.4073 262.059C100.396 262.803 101.521 263.345 102.719 263.654C103.5 263.851 104.302 263.951 105.108 263.952C107.198 263.957 109.231 263.267 110.888 261.992C112.545 260.717 113.732 258.929 114.263 256.907L115.78 251.083C115.942 251.089 116.105 251.104 116.268 251.121C116.309 251.126 116.349 251.13 116.39 251.135C116.436 251.141 116.482 251.146 116.529 251.151L116.529 251.152C116.829 251.187 117.129 251.222 117.424 251.222C126.046 251.177 134.467 248.615 141.653 243.85L146.211 248.524C147.963 250.264 150.326 251.248 152.795 251.265C155.264 251.283 157.641 250.331 159.416 248.616C161.192 246.9 162.224 244.557 162.291 242.089C162.359 239.621 161.456 237.225 159.777 235.415L154.925 230.44C158.151 225.435 160.332 219.829 161.337 213.96C161.836 211.169 162.523 208.415 163.391 205.716L168.168 207.961C169.289 208.512 170.509 208.835 171.756 208.91C172.756 208.97 173.758 208.87 174.723 208.615ZM113.126 203.412C116.268 205.511 119.962 206.632 123.741 206.632C128.808 206.632 133.668 204.619 137.251 201.036C140.835 197.452 142.848 192.592 142.848 187.525C142.848 183.746 141.727 180.052 139.628 176.91C137.528 173.768 134.544 171.319 131.053 169.873C127.561 168.426 123.72 168.048 120.013 168.785C116.307 169.522 112.902 171.342 110.23 174.014C107.558 176.686 105.738 180.091 105.001 183.797C104.264 187.504 104.642 191.345 106.088 194.837C107.535 198.328 109.983 201.312 113.126 203.412Z" fill="black"/>
<path d="M162 0C72.5303 0 0 72.5296 0 162C0 251.47 72.5303 324 162 324C251.47 324 324 251.47 324 162C324 72.5303 251.47 0 162 0ZM246.99 77.0101C289.742 119.762 292.716 185.107 260.497 230.934L93.0651 63.504C138.924 31.2634 204.261 34.2819 246.99 77.0101ZM77.0101 246.99C34.2578 204.238 31.2843 138.893 63.5033 93.0657L147.219 176.781L230.935 260.496C185.076 292.737 119.739 289.719 77.0101 246.99Z" fill="black"/>
</svg>
