<svg viewBox="0 0 273 273" fill="none" xmlns="http://www.w3.org/2000/svg">
  <path d="M17.063 34.125c0-9.438 7.624-17.063 17.062-17.063h153.563c9.437 0 17.062 7.625 17.062 17.063v17.063h27.3c22.608 0 40.95 18.342 40.95 40.95v54.44c0 16.209-9.544 30.872-24.314 37.43l-43.936 19.516v18.288c0 18.823-15.303 34.126-34.125 34.126H51.187c-18.822 0-34.124-15.303-34.124-34.126V34.125ZM204.75 166.146l30.073-13.383c2.452-1.12 4.052-3.519 4.052-6.239V92.138a6.804 6.804 0 0 0-6.825-6.826h-27.3v80.834ZM85.312 76.781c0-4.692-3.839-8.531-8.53-8.531-4.693 0-8.532 3.84-8.532 8.531V196.22c0 4.692 3.84 8.531 8.531 8.531 4.692 0 8.531-3.839 8.531-8.531V76.781Zm34.126 0c0-4.692-3.84-8.531-8.532-8.531s-8.531 3.84-8.531 8.531V196.22c0 4.692 3.839 8.531 8.531 8.531s8.532-3.839 8.532-8.531V76.781Zm34.124 0c0-4.692-3.839-8.531-8.531-8.531s-8.531 3.84-8.531 8.531V196.22c0 4.692 3.839 8.531 8.531 8.531s8.531-3.839 8.531-8.531V76.781Z" fill="#000"/>
</svg>
