<svg viewBox="0 0 289 289" fill="none" xmlns="http://www.w3.org/2000/svg">
  <path d="m209.466 172.364-11.586-21.371a25.59 25.59 0 0 0-6.672 17.29c0 14.247 11.55 25.774 25.827 25.774 14.276 0 25.827-11.527 25.827-25.774 0-14.248-11.551-25.775-25.827-25.775-1.363 0-2.726.108-4.018.323l11.587 21.371c2.259 4.153.681 9.379-3.48 11.634-4.161 2.256-9.398.716-11.658-3.472ZM104.473 174.011H81.157v.035c-7.246 0-11.945-7.625-8.716-14.104l8.68-17.362c-.61-.036-1.22-.072-1.83-.072-14.276 0-25.826 11.527-25.826 25.775 0 14.247 11.55 25.774 25.827 25.774 12.268 0 22.562-8.555 25.181-20.046ZM111.432 120.564l-18.186 36.264h44.3l.036-.036-26.15-36.228ZM164.628 111.006h-38.92l21.379 29.641 17.541-29.641Z" fill="#000"/>
  <path fill-rule="evenodd" clip-rule="evenodd" d="M144.5 289c79.805 0 144.5-64.695 144.5-144.5S224.305 0 144.5 0 0 64.695 0 144.5 64.695 289 144.5 289Zm-7.815-226.679a8.58 8.58 0 0 1 8.609-8.591h12.626c4.233 0 8.107 2.29 10.116 6.014l35.117 64.865a45.595 45.595 0 0 1 13.882-2.147c25.36 0 45.914 20.512 45.914 45.821 0 25.309-20.554 45.821-45.914 45.821-25.361 0-45.914-20.512-45.914-45.821 0-14.319 6.6-27.099 16.93-35.512l-7.783-14.355-30.419 51.37c-1.578 2.614-4.376 4.225-7.425 4.225h-17.577c-2.833 22.588-22.132 40.093-45.555 40.093-25.36 0-45.915-20.512-45.915-45.821 0-25.309 20.554-45.821 45.915-45.821 3.838 0 7.604.465 11.192 1.36l9.541-19.009-7.927-10.99H76.422a8.58 8.58 0 0 1-8.609-8.591 8.58 8.58 0 0 1 8.61-8.592H96.51a8.61 8.61 0 0 1 6.995 3.58l9.828 13.603h53.591l-12.412-22.91h-9.218a8.58 8.58 0 0 1-8.609-8.592Z" fill="#000"/>
</svg>
