<svg viewBox="0 0 292 292" fill="none" xmlns="http://www.w3.org/2000/svg">
  <path d="M121.667 79.083c0-3.346-2.738-6.083-6.084-6.083-3.345 0-6.083 2.737-6.083 6.083s2.738 6.084 6.083 6.084c3.346 0 6.084-2.738 6.084-6.084ZM109.5 212.917c0 3.346 2.738 6.083 6.083 6.083 3.346 0 6.084-2.737 6.084-6.083s-2.738-6.084-6.084-6.084c-3.345 0-6.083 2.738-6.083 6.084ZM206.833 103.417c0-3.346-2.737-6.084-6.083-6.084s-6.083 2.738-6.083 6.084c0 3.346 2.737 6.083 6.083 6.083s6.083-2.737 6.083-6.083Z" fill="#000"/>
  <path fill-rule="evenodd" clip-rule="evenodd" d="M146.01 0A145.994 145.994 0 0 0 0 145.99a146 146 0 0 0 90.132 134.899 145.997 145.997 0 0 0 111.75-.006 145.99 145.99 0 0 0 79.009-79.02A145.998 145.998 0 0 0 146.01 0Zm54.74 73c16.805 0 30.417 13.612 30.417 30.417 0 13.383-8.669 24.751-20.684 28.858-.19 10.683-2.889 19.2-8.212 25.816-10.722 13.307-28.896 15.018-44.941 16.501l-.258.024c-9.675.903-18.768 1.752-24.874 4.842-2.699 1.369-4.486 3.118-5.665 5.095C137.94 188.926 146 199.99 146 212.917c0 16.805-13.611 30.416-30.417 30.416-16.805 0-30.416-13.611-30.416-30.416 0-13.612 8.935-25.132 21.291-29.048v-75.776c-12.356-3.878-21.291-15.398-21.291-29.01 0-16.805 13.611-30.416 30.416-30.416 16.806 0 30.417 13.611 30.417 30.416 0 13.612-8.935 25.132-21.292 29.01v54.75c9.087-4.372 20.189-5.437 30.911-6.425 13.65-1.255 26.539-2.472 32.394-9.772 2.585-3.193 3.954-7.908 4.182-14.029-12.623-3.688-21.862-15.361-21.862-29.2C170.333 86.612 183.945 73 200.75 73Z" fill="#000"/>
</svg>
