<svg viewBox="0 0 324 324" fill="none" xmlns="http://www.w3.org/2000/svg">
  <path fill-rule="evenodd" clip-rule="evenodd" d="M258.893 95.518a9.46 9.46 0 0 1 4.567 5.6 9.403 9.403 0 0 1-3.11 9.996 9.387 9.387 0 0 1-3.259 1.703l-6.286 1.863a44.112 44.112 0 0 1-6.205 25.579l5.15 4.646a9.424 9.424 0 0 1 3.341 6.591 9.435 9.435 0 0 1-5.483 9.201 9.443 9.443 0 0 1-7.387.197 9.43 9.43 0 0 1-3.161-2.057l-5.306-4.777a44.171 44.171 0 0 1-17.912 7.38 63.238 63.238 0 0 0-6.564 1.632l2.133 4.821a9.446 9.446 0 0 1-.009 7.617l-85.198-85.198a9.495 9.495 0 0 1 12.983 2.089l3.185 4.231a152.607 152.607 0 0 1 23.362-12.67l-1.712-4.797a9.447 9.447 0 0 1 5.802-11.921 9.45 9.45 0 0 1 12.011 5.612l1.712 4.777a153.927 153.927 0 0 1 17.646-4.144 44.563 44.563 0 0 1 8.889-.585l1.496-5.72a9.46 9.46 0 0 1 11.526-6.785 9.46 9.46 0 0 1 6.785 11.525l-1.509 5.76a44.521 44.521 0 0 1 19.306 18.876l6.019-1.783a9.458 9.458 0 0 1 7.188.741Zm-54.478 4.474a7.185 7.185 0 1 0 0-14.37 7.185 7.185 0 0 0 0 14.37Zm32.008 23.516c0 6.855-5.557 12.411-12.412 12.411-6.854 0-12.411-5.556-12.411-12.411 0-6.854 5.557-12.411 12.411-12.411 6.855 0 12.412 5.557 12.412 12.411ZM174.723 208.615l-84.59-84.59a9.408 9.408 0 0 0-2.856 4.824 9.424 9.424 0 0 0 3.827 9.938l4.414 3.208a152.63 152.63 0 0 0-12.308 23.386l-5.146-1.764a9.415 9.415 0 1 0-6.158 17.79l5.174 1.783a153.562 153.562 0 0 0-3.702 16.133 44.42 44.42 0 0 0-.414 10.095l-6.146 1.815a9.412 9.412 0 0 0-1.786 17.296 9.406 9.406 0 0 0 7.164.74l5.971-1.767a44.374 44.374 0 0 0 19.318 18.804l-1.533 5.872a9.418 9.418 0 0 0 6.767 11.476 9.815 9.815 0 0 0 2.389.298 9.442 9.442 0 0 0 9.155-7.045l1.517-5.824c.162.006.325.021.488.038l.122.014.139.016v.001c.3.035.6.07.895.07a44.26 44.26 0 0 0 24.229-7.372l4.558 4.674a9.435 9.435 0 0 0 13.566-13.109l-4.852-4.975a44.185 44.185 0 0 0 6.412-16.48 63.34 63.34 0 0 1 2.054-8.244l4.777 2.245a9.417 9.417 0 0 0 6.555.654Zm-61.597-5.203a19.11 19.11 0 0 0 24.125-2.376 19.107 19.107 0 1 0-24.125 2.376Z" fill="#000"/>
  <path d="M162 0C72.53 0 0 72.53 0 162s72.53 162 162 162 162-72.53 162-162S251.47 0 162 0Zm84.99 77.01c42.752 42.752 45.726 108.097 13.507 153.924L93.065 63.504c45.859-32.24 111.196-29.222 153.925 13.506ZM77.01 246.99C34.258 204.238 31.284 138.893 63.503 93.066l83.716 83.715 83.716 83.715c-45.859 32.241-111.196 29.223-153.925-13.506Z" fill="#000"/>
</svg>
