<svg viewBox="0 0 300 268" fill="none" xmlns="http://www.w3.org/2000/svg">
  <path d="M136.349 79.824c0 7.71 6.241 13.981 13.911 13.981 7.671 0 13.912-6.272 13.912-13.98 0-7.71-6.241-13.982-13.912-13.982-7.67 0-13.911 6.272-13.911 13.981Z" fill="#000"/>
  <path fill-rule="evenodd" clip-rule="evenodd" d="M110.265 79.824c0 22.219 17.892 40.195 39.995 40.195 22.108 0 39.995-17.981 39.995-40.195 0-22.218-17.891-40.195-39.995-40.195-22.108 0-39.995 17.981-39.995 40.195Zm12.173 0c0-15.442 12.457-27.962 27.822-27.962 15.366 0 27.823 12.52 27.823 27.962s-12.457 27.962-27.823 27.962c-15.365 0-27.822-12.52-27.822-27.962Z" fill="#000"/>
  <path fill-rule="evenodd" clip-rule="evenodd" d="M233.333 33.5H287.5c6.927 0 12.5 5.6 12.5 12.563v29.312c0 18.687-11.771 37.897-32.24 52.71-16.354 11.882-36.302 19.42-57.291 21.827C194.115 177.184 175 188.438 175 188.438v37.687h25c18.385 0 33.333 10.835 33.333 29.313v6.281c0 3.454-2.812 6.281-6.25 6.281H72.917c-3.438 0-6.25-2.827-6.25-6.281v-6.281c0-18.478 14.948-29.313 33.333-29.313h25v-37.687s-19.115-11.254-35.469-38.526c-20.937-2.407-40.885-9.945-57.291-21.827C11.719 113.272 0 94.062 0 75.375V46.062C0 39.102 5.573 33.5 12.5 33.5h54.167V12.562C66.667 5.601 72.24 0 79.167 0h141.666c6.927 0 12.5 5.6 12.5 12.563V33.5Zm-200 41.875c0 6.072 5.677 16.331 18.386 25.544 6.51 4.711 13.854 8.479 21.718 11.201-3.645-13.086-6.145-28.056-6.666-45.12H33.333v8.375Zm214.948 25.544c9.167-6.648 18.386-17.117 18.386-25.544V67h-33.49c-.521 17.064-3.021 32.034-6.667 45.12 7.865-2.722 15.261-6.49 21.771-11.201ZM96.354 79.824c0-29.921 24.134-54.176 53.906-54.176 29.773 0 53.907 24.255 53.907 54.176 0 29.921-24.134 54.176-53.907 54.176-29.772 0-53.906-24.255-53.906-54.176Z" fill="#000"/>
</svg>
